HIERARCHY
ROOT hip
{
  OFFSET 0 0 0
  CHANNELS 6 Xposition Yposition Zposition Zrotation Yrotation Xrotation
  JOINT abdomen
  {
    OFFSET 0 20.6881 -0.73152
    CHANNELS 3 Zrotation Xrotation Yrotation
    JOINT chest
    {
      OFFSET 0 11.7043 -0.48768
      CHANNELS 3 Zrotation Xrotation Yrotation
      JOINT neck
      {
        OFFSET 0 22.1894 -2.19456
        CHANNELS 3 Zrotation Xrotation Yrotation
        JOINT head
        {
          OFFSET -0.24384 7.07133 1.2192
          CHANNELS 3 Zrotation Xrotation Yrotation
          JOINT leftEye
          {
            OFFSET 4.14528 8.04674 8.04672
            CHANNELS 3 Zrotation Xrotation Yrotation
            End Site
            {
              OFFSET 1 0 0
            }
          }
          JOINT rightEye
          {
            OFFSET -3.6576 8.04674 8.04672
            CHANNELS 3 Zrotation Xrotation Yrotation
            End Site
            {
              OFFSET 1 0 0
            }
          }
        }
      }
      JOINT rCollar
      {
        OFFSET -2.68224 19.2634 -4.8768
        CHANNELS 3 Zrotation Xrotation Yrotation
        JOINT rShldr
        {
          OFFSET -8.77824 -1.95073 1.46304
          CHANNELS 3 Zrotation Xrotation Yrotation
          JOINT rForeArm
          {
            OFFSET -28.1742 -1.7115 0.48768
            CHANNELS 3 Zrotation Xrotation Yrotation
            JOINT rHand
            {
              OFFSET -22.5879 0.773209 7.07136
              CHANNELS 3 Zrotation Xrotation Yrotation
              JOINT rThumb1
              {
                OFFSET -1.2192 -0.487915 3.41376
                CHANNELS 3 Zrotation Xrotation Yrotation
                JOINT rThumb2
                {
                  OFFSET -3.37035 -0.52449 3.41376
                  CHANNELS 3 Zrotation Xrotation Yrotation
                  End Site
                  {
                    OFFSET -1.78271 -1.18214 1.43049
                  }
                }
              }
              JOINT rIndex1
              {
                OFFSET -7.75947 0.938293 5.60832
                CHANNELS 3 Zrotation Xrotation Yrotation
                JOINT rIndex2
                {
                  OFFSET -2.54057 -0.884171 1.56538
                  CHANNELS 3 Zrotation Xrotation Yrotation
                  End Site
                  {
                    OFFSET -1.62519 -0.234802 1.16502
                  }
                }
              }
              JOINT rMid1
              {
                OFFSET -8.24714 1.18213 3.41376
                CHANNELS 3 Zrotation Xrotation Yrotation
                JOINT rMid2
                {
                  OFFSET -3.10165 -0.590103 1.0647
                  CHANNELS 3 Zrotation Xrotation Yrotation
                  End Site
                  {
                    OFFSET -2.48547 -0.328903 0.83742
                  }
                }
              }
              JOINT rRing1
              {
                OFFSET -8.82822 0.546677 1.51678
                CHANNELS 3 Zrotation Xrotation Yrotation
                JOINT rRing2
                {
                  OFFSET -2.60934 -0.819778 -0.0198488
                  CHANNELS 3 Zrotation Xrotation Yrotation
                  End Site
                  {
                    OFFSET -2.33842 -0.294052 0.168128
                  }
                }
              }
              JOINT rPinky1
              {
                OFFSET -8.27202 -0.0477905 -0.4584
                CHANNELS 3 Zrotation Xrotation Yrotation
                JOINT rPinky2
                {
                  OFFSET -1.82734 -0.647385 -0.700984
                  CHANNELS 3 Zrotation Xrotation Yrotation
                  End Site
                  {
                    OFFSET -1.69225 -0.51767 -0.607171
                  }
                }
              }
            }
          }
        }
      }
      JOINT lCollar
      {
        OFFSET 2.68224 19.2634 -4.8768
        CHANNELS 3 Zrotation Xrotation Yrotation
        JOINT lShldr
        {
          OFFSET 8.77824 -1.95073 1.46304
          CHANNELS 3 Zrotation Xrotation Yrotation
          JOINT lForeArm
          {
            OFFSET 28.1742 -1.7115 0.48768
            CHANNELS 3 Zrotation Xrotation Yrotation
            JOINT lHand
            {
              OFFSET 22.5879 0.773209 7.07136
              CHANNELS 3 Zrotation Xrotation Yrotation
              JOINT lThumb1
              {
                OFFSET 1.2192 -0.487915 3.41376
                CHANNELS 3 Zrotation Xrotation Yrotation
                JOINT lThumb2
                {
                  OFFSET 3.37035 -0.52449 3.41376
                  CHANNELS 3 Zrotation Xrotation Yrotation
                  End Site
                  {
                    OFFSET 1.78271 -1.18214 1.43049
                  }
                }
              }
              JOINT lIndex1
              {
                OFFSET 7.75947 0.938293 5.60832
                CHANNELS 3 Zrotation Xrotation Yrotation
                JOINT lIndex2
                {
                  OFFSET 2.54057 -0.884171 1.56538
                  CHANNELS 3 Zrotation Xrotation Yrotation
                  End Site
                  {
                    OFFSET 1.62519 -0.234802 1.16502
                  }
                }
              }
              JOINT lMid1
              {
                OFFSET 8.24714 1.18213 3.41376
                CHANNELS 3 Zrotation Xrotation Yrotation
                JOINT lMid2
                {
                  OFFSET 3.10165 -0.590103 1.0647
                  CHANNELS 3 Zrotation Xrotation Yrotation
                  End Site
                  {
                    OFFSET 2.48547 -0.328903 0.83742
                  }
                }
              }
              JOINT lRing1
              {
                OFFSET 8.82822 0.546677 1.51678
                CHANNELS 3 Zrotation Xrotation Yrotation
                JOINT lRing2
                {
                  OFFSET 2.60934 -0.819778 -0.0198488
                  CHANNELS 3 Zrotation Xrotation Yrotation
                  End Site
                  {
                    OFFSET 2.33842 -0.294052 0.168128
                  }
                }
              }
              JOINT lPinky1
              {
                OFFSET 8.27202 -0.0477905 -0.4584
                CHANNELS 3 Zrotation Xrotation Yrotation
                JOINT lPinky2
                {
                  OFFSET 1.82734 -0.647385 -0.700984
                  CHANNELS 3 Zrotation Xrotation Yrotation
                  End Site
                  {
                    OFFSET 1.69225 -0.51767 -0.607171
                  }
                }
              }
            }
          }
        }
      }
    }
  }
  JOINT rButtock
  {
    OFFSET -8.77824 4.35084 1.2192
    CHANNELS 3 Zrotation Xrotation Yrotation
    JOINT rThigh
    {
      OFFSET 0 -1.70687 -2.19456
      CHANNELS 3 Zrotation Xrotation Yrotation
      JOINT rShin
      {
        OFFSET 0 -36.8199 0.73152
        CHANNELS 3 Zrotation Xrotation Yrotation
        JOINT rFoot
        {
          OFFSET 0.73152 -45.1104 -5.12064
          CHANNELS 3 Zrotation Xrotation Yrotation
          End Site
          {
            OFFSET -1.1221 -3.69964 12.103
          }
        }
      }
    }
  }
  JOINT lButtock
  {
    OFFSET 8.77824 4.35084 1.2192
    CHANNELS 3 Zrotation Xrotation Yrotation
    JOINT lThigh
    {
      OFFSET 0 -1.70687 -2.19456
      CHANNELS 3 Zrotation Xrotation Yrotation
      JOINT lShin
      {
        OFFSET 0 -36.8199 0.73152
        CHANNELS 3 Zrotation Xrotation Yrotation
        JOINT lFoot
        {
          OFFSET -0.73152 -45.1104 -5.12064
          CHANNELS 3 Zrotation Xrotation Yrotation
          End Site
          {
            OFFSET 1.1221 -3.69964 12.103
          }
        }
      }
    }
  }
}
MOTION
Frames:	6
Frame Time:	0.00833333
-4.29339 83.0495 50.718 -6.9437 -1.2631 8.7826 5.93478 -1.58172 14.2284 -11.7972 -13.7177 2.47862 -2.87052 3.11628 -6.01125 -2.56266 -9.62016 -11.4454 -0.0 0.0 0.0 -0.0 0.0 0.0 4.275e-14 3.56083e-14 -6.66697e-14 5.35678 -0.130961 46.8726 -24.7623 -46.5948 101.625 -0.197448 -12.5082 -1.78698 -1.84345e-10 3.71758e-11 -9.87068e-10 -3.06634e-10 6.3275e-11 -1.71236e-09 -1.84339e-10 3.718e-11 -9.87081e-10 7.73091 5.47488 0.417314 -1.84346e-10 3.71795e-11 -9.87068e-10 2.90554 0.965183 0.102902 -1.84337e-10 3.71782e-11 -9.87072e-10 10.2786 0.731801 0.0259123 -1.84348e-10 3.71765e-11 -9.8706e-10 2.22167 -0.733487 -0.20892 4.27191e-14 3.55821e-14 -6.68786e-14 -42.778 43.0022 9.07745 19.2466 -53.9053 -116.014 1.37382 -31.2946 4.90101 -4.76435e-11 1.73677e-09 -8.6092e-10 -6.04337e-11 2.95172e-09 -1.49238e-09 -4.76456e-11 1.73678e-09 -8.60915e-10 -7.73091 5.47488 -0.417314 -4.76407e-11 1.73678e-09 -8.60916e-10 -2.90554 0.965183 -0.102902 -4.76519e-11 1.73678e-09 -8.60922e-10 -10.2786 0.731801 -0.0259123 -4.76385e-11 1.73678e-09 -8.60932e-10 -2.22167 -0.733487 0.20892 -2.03217e-16 0.0 -3.88251e-19 1.94049 -5.0285 20.3117 0.025548 1.45983 0.40749 -5.64151 -6.69547 -21.2995 2.03217e-16 0.0 3.88251e-19 1.91038 -8.75986 -28.6889 -0.0105719 14.1049 -0.226574 7.95232 -12.0661 39.8958
-4.53975 83.2015 50.5509 -7.3411 -0.6554 9.0227 6.33694 -1.25382 15.7036 -12.7291 -13.6184 2.81733 -3.43951 2.924 -6.46886 -1.95368 -9.2641 -12.1491 -0.0 0.0 0.0 -0.0 0.0 0.0 4.97116e-14 2.86413e-14 -2.85256e-14 3.58031 -2.45691 47.7958 -26.7676 -44.6102 92.667 -0.194515 -12.4674 -1.78065 -2.30436e-10 2.36773e-10 -9.31632e-10 -3.86759e-10 4.09474e-10 -1.61692e-09 -2.30432e-10 2.3678e-10 -9.31645e-10 7.73091 5.47488 0.417314 -2.30438e-10 2.36778e-10 -9.31632e-10 2.90554 0.965183 0.102902 -2.30428e-10 2.36777e-10 -9.31637e-10 10.2786 0.731801 0.0259123 -2.30441e-10 2.36776e-10 -9.31626e-10 2.22167 -0.733487 -0.20892 4.96841e-14 2.86095e-14 -2.87244e-14 -41.2236 41.293 10.0778 19.16 -53.9686 -116.217 1.42578 -31.8091 5.00081 -1.33703e-10 1.96465e-09 -7.54227e-10 -2.11715e-10 3.34835e-09 -1.30951e-09 -1.33703e-10 1.96466e-09 -7.54221e-10 -7.73091 5.47488 -0.417314 -1.33699e-10 1.96466e-09 -7.54221e-10 -2.90554 0.965183 -0.102902 -1.33711e-10 1.96466e-09 -7.54228e-10 -10.2786 0.731801 -0.0259123 -1.33697e-10 1.96466e-09 -7.54237e-10 -2.22167 -0.733487 0.20892 -2.03217e-16 0.0 -3.88251e-19 2.32414 -5.02034 20.4611 0.0263672 1.17906 0.393723 -5.75084 -6.60242 -21.885 2.03217e-16 0.0 3.88251e-19 2.35042 -9.14726 -28.8007 -0.011303 14.0631 -0.228053 7.66025 -11.7599 39.58
-4.75319 83.3354 50.4004 -7.5737 -0.2725 9.3124 6.64107 -1.1867 16.9775 -13.3631 -13.478 3.13266 -3.80555 2.77255 -6.72833 -1.62164 -8.59352 -12.5209 -0.0 0.0 0.0 -0.0 0.0 0.0 2.56921e-15 2.88387e-15 -3.20824e-14 1.30736 -4.18102 49.7808 -29.4734 -42.0947 79.1506 -0.212241 -12.2281 -1.74484 2.19903e-10 5.83637e-10 -7.31713e-10 3.90455e-10 1.01287e-09 -1.26795e-09 2.19906e-10 5.83649e-10 -7.31727e-10 7.73091 5.47488 0.417314 2.199e-10 5.8364e-10 -7.31716e-10 2.90554 0.965183 0.102902 2.19912e-10 5.8364e-10 -7.31718e-10 10.2786 0.731801 0.0259123 2.19897e-10 5.83639e-10 -7.31709e-10 2.22167 -0.733487 -0.20892 2.53235e-15 2.85664e-15 -3.22788e-14 -40.632 39.6366 11.7279 19.0458 -54.0489 -116.483 1.47738 -32.2998 5.09743 -4.54708e-11 6.99294e-10 -3.55774e-10 -6.88143e-11 1.17268e-09 -6.17541e-10 -4.54702e-11 6.99294e-10 -3.55767e-10 -7.73091 5.47488 -0.417314 -4.54672e-11 6.99298e-10 -3.55768e-10 -2.90554 0.965183 -0.102902 -4.54776e-11 6.99298e-10 -3.55776e-10 -10.2786 0.731801 -0.0259123 -4.54656e-11 6.99298e-10 -3.55785e-10 -2.22167 -0.733487 0.20892 -2.03217e-16 0.0 -3.88251e-19 2.58534 -5.06332 20.6064 0.0267232 0.900202 0.381334 -5.76849 -6.50981 -22.1569 2.03217e-16 0.0 3.88251e-19 2.62722 -9.40789 -29.0493 -0.0116712 13.9961 -0.225294 7.64754 -11.7016 39.7064
-4.95049 83.4453 50.289 -7.7379 -0.1106 9.5226 6.90555 -1.28893 18.0429 -13.7516 -13.3022 3.41772 -3.99121 2.66014 -6.82098 -1.50826 -7.72437 -12.6165 -0.0 0.0 0.0 -0.0 0.0 0.0 -7.7627e-14 -3.20956e-14 -6.25209e-14 -1.24564 -5.36423 52.412 -30.4703 -35.5815 64.5725 -0.243683 -11.8398 -1.68709 9.88691e-10 1.05132e-09 -4.41704e-10 1.71769e-09 1.82705e-09 -7.60873e-10 9.88693e-10 1.05134e-09 -4.41719e-10 7.73091 5.47488 0.417314 9.88686e-10 1.05132e-09 -4.41711e-10 2.90554 0.965183 0.102902 9.88699e-10 1.05132e-09 -4.41708e-10 10.2786 0.731801 0.0259123 9.88682e-10 1.05132e-09 -4.41702e-10 2.22167 -0.733487 -0.20892 -7.76816e-14 -3.21116e-14 -6.27197e-14 -40.6098 37.9038 13.7702 18.9305 -54.1292 -116.752 1.52309 -32.7297 5.18266 1.55602e-10 -1.55336e-09 2.54875e-10 2.64012e-10 -2.70281e-09 4.44373e-10 1.55604e-10 -1.55337e-09 2.54885e-10 -7.73091 5.47488 -0.417314 1.55606e-10 -1.55336e-09 2.54881e-10 -2.90554 0.965183 -0.102902 1.55597e-10 -1.55336e-09 2.54872e-10 -10.2786 0.731801 -0.0259123 1.55607e-10 -1.55336e-09 2.54863e-10 -2.22167 -0.733487 0.20892 -2.03217e-16 0.0 -3.88251e-19 2.79216 -5.15777 20.7666 0.0266722 0.621295 0.369684 -5.72292 -6.40958 -22.2232 2.03217e-16 0.0 3.88251e-19 2.81078 -9.59032 -29.4027 -0.0117757 13.908 -0.219426 7.83382 -11.8138 40.1659
-5.12967 83.5193 50.2312 -7.8586 -0.1441 9.6108 7.13167 -1.42436 19.0038 -14.0289 -13.0897 3.68996 -4.08204 2.55461 -6.88042 -1.39621 -6.83895 -12.6743 -0.0 0.0 0.0 -0.0 0.0 0.0 -1.67899e-13 -5.93727e-14 -9.82256e-14 -3.19353 -6.15031 55.0269 -27.6524 -26.1039 53.8966 -0.211413 -10.5122 -1.49243 1.75035e-09 1.4689e-09 -1.9267e-10 3.03139e-09 2.55143e-09 -3.25383e-10 1.75035e-09 1.46892e-09 -1.92686e-10 7.73091 5.47488 0.417314 1.75034e-09 1.46889e-09 -1.92681e-10 2.90554 0.965183 0.102902 1.75036e-09 1.46889e-09 -1.92673e-10 10.2786 0.731801 0.0259123 1.75034e-09 1.4689e-09 -1.92669e-10 2.22167 -0.733487 -0.20892 -1.67971e-13 -5.93764e-14 -9.84268e-14 -40.6109 36.3468 15.5919 18.8317 -54.1972 -116.98 1.55736 -33.0474 5.24611 4.36713e-10 -3.81684e-09 8.21439e-10 7.36364e-10 -6.60394e-09 1.4321e-09 4.36716e-10 -3.81686e-09 8.2145e-10 -7.73091 5.47488 -0.417314 4.36717e-10 -3.81684e-09 8.21444e-10 -2.90554 0.965183 -0.102902 4.36711e-10 -3.81684e-09 8.21434e-10 -10.2786 0.731801 -0.0259123 4.36718e-10 -3.81684e-09 8.21424e-10 -2.22167 -0.733487 0.20892 -2.03217e-16 0.0 -3.88251e-19 3.02827 -5.22631 20.8809 0.0262979 0.375611 0.358463 -5.65527 -6.32256 -22.1882 2.03217e-16 0.0 3.88251e-19 3.02914 -9.71011 -29.6946 -0.0116683 13.8189 -0.213557 8.03419 -11.939 40.6272
-5.29732 83.5679 50.1728 -7.9965 -0.3514 9.568 7.31122 -1.45966 19.9637 -14.3297 -12.8389 3.96679 -4.16495 2.42391 -7.04023 -1.0562 -6.12173 -12.9291 -0.0 0.0 0.0 -0.0 0.0 0.0 -2.45268e-13 -6.20231e-14 -1.17581e-13 -3.68076 -6.75441 56.982 -23.1736 -17.6278 47.0921 -0.0686324 -7.45392 -1.05359 2.17931e-09 1.66544e-09 -1.15677e-10 3.76801e-09 2.88541e-09 -1.91172e-10 2.17931e-09 1.66546e-09 -1.15693e-10 7.73091 5.47488 0.417314 2.1793e-09 1.66543e-09 -1.15689e-10 2.90554 0.965183 0.102902 2.17932e-09 1.66543e-09 -1.15679e-10 10.2786 0.731801 0.0259123 2.1793e-09 1.66543e-09 -1.15677e-10 2.22167 -0.733487 -0.20892 -2.45349e-13 -6.20189e-14 -1.1778e-13 -40.1982 35.2394 16.6436 18.7674 -54.2408 -117.129 1.57429 -33.2017 5.27715 7.6506e-10 -5.11469e-09 1.08764e-09 1.29784e-09 -8.85651e-09 1.90152e-09 7.65063e-10 -5.11471e-09 1.08765e-09 -7.73091 5.47488 -0.417314 7.65063e-10 -5.1147e-09 1.08764e-09 -2.90554 0.965183 -0.102902 7.65059e-10 -5.1147e-09 1.08763e-09 -10.2786 0.731801 -0.0259123 7.65064e-10 -5.11469e-09 1.08762e-09 -2.22167 -0.733487 0.20892 -2.03217e-16 0.0 -3.88251e-19 3.37652 -5.19192 20.8883 0.0257041 0.196423 0.347355 -5.60604 -6.26976 -22.1562 2.03217e-16 0.0 3.88251e-19 3.4117 -9.78425 -29.7587 -0.0114274 13.7486 -0.210789 8.05651 -11.9277 40.7573
